<svg xmlns="http://www.w3.org/2000/svg" width="32" height="32" viewBox="0 0 32 32" fill="none" class="md-icon"><path d="M16 4C9.37 4 4 8.7 4 14.5C4 17.65 5.61 20.47 8.21 22.28L7.05 26.33C6.78 27.27 7.74 28.08 8.62 27.67L13.1 25.59C14.03 25.86 15 26 16 26C22.63 26 28 21.3 28 15.5C28 9.7 22.63 4 16 4ZM16 24C15.15 24 14.33 23.88 13.54 23.63L13.31 23.56L9.63 25.26L10.51 22.18L10.38 21.96C7.99 20.45 6.5 17.84 6.5 15C6.5 10.03 10.76 6 16 6C21.24 6 25.5 10.03 25.5 15C25.5 19.97 21.24 24 16 24Z" fill="currentColor"/></svg>
